PathFileType	4	(X/Y/Z)	E:\Marcel_BSc\Ayumi_22_01_2025\22-01-2025\sumo_dl_2.trc
DataRate	CameraRate	NumFrames	NumMarkers	Units	OrigDataRate	OrigDataStartFrame	OrigNumFrames
200.0	200.0	7	47	mm	200.0	574	2294	
Frame#	Time	LBHD			FHD			RBHD			RBAR			LBAR			RSACR			LSACR			USACR			C7			CLAV			T10			RSHO			LSHO			LTHI1			LTHI3			LTHI2			LTIB1			LTIB2			LTIB3			LMMAL			LLMAL			LHEE			LMT1			LMT5			LMT3			RTHI1			RTHI2			RTHI3			RTIB1			RTIB3			RTIB2			RLMAL			RMMAL			RHEE			RMT5			RMT1			RMT3			LDUPA			LMUPA			LUUPA			LRAD			RUL			RRAD			RUFIN			RMUPA			RDUPA			RUUPA			
		X1	Y1	Z1	X2	Y2	Z2	X3	Y3	Z3	X4	Y4	Z4	X5	Y5	Z5	X6	Y6	Z6	X7	Y7	Z7	X8	Y8	Z8	X9	Y9	Z9	X10	Y10	Z10	X11	Y11	Z11	X12	Y12	Z12	X13	Y13	Z13	X14	Y14	Z14	X15	Y15	Z15	X16	Y16	Z16	X17	Y17	Z17	X18	Y18	Z18	X19	Y19	Z19	X20	Y20	Z20	X21	Y21	Z21	X22	Y22	Z22	X23	Y23	Z23	X24	Y24	Z24	X25	Y25	Z25	X26	Y26	Z26	X27	Y27	Z27	X28	Y28	Z28	X29	Y29	Z29	X30	Y30	Z30	X31	Y31	Z31	X32	Y32	Z32	X33	Y33	Z33	X34	Y34	Z34	X35	Y35	Z35	X36	Y36	Z36	X37	Y37	Z37	X38	Y38	Z38	X39	Y39	Z39	X40	Y40	Z40	X41	Y41	Z41	X42	Y42	Z42	X43	Y43	Z43	X44	Y44	Z44	X45	Y45	Z45	X46	Y46	Z46	X47	Y47	Z47	
574	2.86	-123.74613	889.32056	-873.69476	-144.62575	871.57837	-931.78619	-105.7627	894.87073	-1004.1646	242.87483	236.59084	-2034.4731	267.94846	250.17244	185.70618	514.86548	724.01385	-1000.7777	521.43738	728.28723	-929.6496	507.53723	732.89429	-963.25989	115.30381	977.03931	-939.30902	103.52422	811.52087	-944.97577	377.34631	849.92975	-961.64343	66.344887	835.9577	-1086.7344	94.840843	838.99023	-786.45636	429.5899	518.83783	-630.66907	390.82474	473.28613	-602.89459	373.39804	520.20062	-594.55573	320.81445	244.55708	-488.10779	362.21768	240.34885	-516.97107	339.47864	182.60783	-496.09805	296.42932	73.411339	-549.35052	354.46371	72.96241	-500.59528	358.23593	34.116287	-559.00012	207.68544	45.712822	-436.61902	273.90051	27.031994	-390.88635	228.89803	41.777496	-408.72388	418.37521	504.21042	-1274.9794	363.27875	508.74728	-1311.6653	378.16254	460.79276	-1302.4543	319.80225	275.97791	-1416.7523	337.49728	214.36256	-1407.3011	358.11438	271.60165	-1383.3571	354.43195	75.079979	-1405.9362	278.87399	71.569069	-1375.9154	356.31204	30.745596	-1348.0813	286.80246	26.607571	-1524.672	226.12823	36.059612	-1496.6219	250.21803	34.075008	-1517.0051	243.18416	684.93457	-727.95282	194.66035	673.90234	-732.74982	180.0163	733.92004	-730.10175	263.34219	364.98349	-685.85431	198.46114	359.07742	-1212.3596	196.88649	350.86298	-1150.7855	201.03549	279.63635	-1154.246	125.03959	751.31909	-1173.2946	143.74207	692.49854	-1189.5363	168.86722	767.58649	-1190.9371
575	2.865	-124.0809	887.51337	-873.57111	-144.8382	869.64923	-931.68994	-105.96036	892.98438	-1004.0182	242.82498	236.59903	-2034.5066	267.83328	250.20125	185.72913	515.01404	723.26978	-1000.7432	521.55432	727.54889	-929.67841	507.66754	732.11389	-963.26465	114.82739	975.69879	-938.95062	103.38791	810.12292	-944.93988	377.24332	849.61713	-961.35321	66.384758	834.50665	-1086.822	94.605934	837.18878	-786.38312	429.62717	518.46436	-630.72821	390.81223	473.07986	-602.88879	373.45206	519.98242	-594.61304	320.68784	244.56056	-488.09967	362.14764	240.33516	-516.95654	339.44217	182.62662	-496.08295	296.4238	73.412613	-549.34399	354.43991	72.948868	-500.61316	358.19452	34.139984	-559.01093	207.68202	45.697266	-436.61432	273.79703	27.385399	-390.68918	229.00467	41.817001	-408.88293	418.44763	503.82651	-1275.0527	363.34265	508.57608	-1311.6223	378.1618	460.50433	-1302.5403	319.73334	275.97333	-1416.7668	337.44778	214.36658	-1407.3314	358.09769	271.59421	-1383.3907	354.38242	75.099815	-1406.0248	278.84064	71.579544	-1375.8978	356.32272	30.744188	-1348.0768	286.80621	26.601398	-1524.668	226.1255	36.064209	-1496.6266	250.18224	34.051678	-1517.0094	243.26582	683.25092	-728.0567	194.67993	672.16272	-732.74438	180.01811	732.13574	-730.09369	264.17163	363.57932	-685.57361	197.68588	358.03815	-1212.4209	196.46774	349.68863	-1150.8994	200.74509	278.53525	-1154.1106	124.76377	750.19153	-1173.4453	143.34642	691.48682	-1189.6749	168.59392	766.53351	-1190.9235
576	2.87	-124.33588	885.77966	-873.38043	-145.09818	867.81921	-931.48224	-106.21914	891.1377	-1003.8742	242.83302	236.56615	-2034.5026	267.7554	250.21838	185.73363	515.03418	722.71503	-1000.7539	521.54755	726.9624	-929.62213	507.72858	731.47223	-963.23511	114.40874	974.21478	-938.73175	103.2765	808.68219	-944.91779	377.03253	848.83508	-961.23132	66.433571	832.88013	-1086.9421	94.418861	835.36859	-786.33936	429.62256	518.0484	-630.77246	390.77838	472.83939	-602.90656	373.53363	519.80237	-594.71411	320.64606	244.5533	-488.10007	362.08987	240.33585	-516.93597	339.34302	182.63422	-496.07819	296.42987	73.392303	-549.36725	354.44223	72.956551	-500.61667	358.21921	34.10141	-559.01495	207.68494	45.678844	-436.62305	273.64136	27.602686	-390.45486	229.01666	41.798607	-408.88989	418.46558	503.59671	-1275.061	363.35757	508.4104	-1311.6274	378.14941	460.3154	-1302.5831	320.1272	275.22485	-1416.574	337.37961	214.32578	-1407.3763	358.05429	271.57385	-1383.4384	354.34851	75.105904	-1405.926	278.82529	71.558456	-1375.8973	356.31772	30.739023	-1348.0938	286.81494	26.610359	-1524.6627	226.12109	36.046104	-1496.6313	250.16957	34.054192	-1517.019	243.32184	681.57959	-728.1814	194.73875	670.44989	-732.75256	179.9642	730.45258	-730.07623	264.99707	362.19067	-685.34033	196.5545	356.59534	-1213.123	195.95305	348.4505	-1151.0629	200.49623	277.34158	-1154.1808	124.3755	749.08502	-1173.6383	142.94487	690.43903	-1189.7743	168.23668	765.51581	-1190.911
577	2.875	-124.58582	884.00665	-873.19421	-145.338	865.9696	-931.32397	-106.61677	889.60278	-1003.4125	242.81668	236.50711	-2034.5745	267.66742	250.19362	185.72668	515.15112	721.93658	-1000.7362	521.67377	726.2439	-929.62451	507.77673	730.83124	-963.21936	113.98347	972.82098	-938.45477	103.16062	807.20319	-944.96588	376.84445	847.23975	-961.48962	66.023636	831.83594	-1086.809	94.212982	833.5528	-786.28973	429.65952	517.72687	-630.85547	390.74625	472.56744	-602.93451	373.56155	519.63031	-594.80151	320.59958	244.5593	-488.09216	362.03177	240.34254	-516.91357	339.32455	182.63493	-496.05499	296.44577	73.36438	-549.37848	354.42035	72.941528	-500.61548	358.22153	34.087318	-559.02148	207.69016	45.664314	-436.62924	273.46735	27.832939	-390.20602	228.9787	41.790352	-408.85162	418.49072	503.32349	-1275.0922	363.35767	508.19611	-1311.6512	378.12268	460.12506	-1302.6201	319.62286	275.76196	-1416.8778	337.30609	214.34679	-1407.3871	357.91974	271.5755	-1383.4597	354.3515	75.088142	-1405.8384	278.79184	71.546455	-1375.8824	356.31732	30.728113	-1348.1016	286.78989	26.602461	-1524.6729	226.13034	36.056789	-1496.6244	250.16859	34.048023	-1517.0157	243.34578	679.9682	-728.31183	194.82175	668.77417	-732.77032	180.19043	728.69159	-729.54425	265.84537	360.77884	-685.13019	196.07872	355.22385	-1213.3981	195.44569	347.23553	-1151.3101	200.22092	276.31729	-1154.1289	124.14265	747.8844	-1173.6497	142.5782	689.24609	-1189.894	167.94116	764.25677	-1190.9624
578	2.88	-124.83581	882.23944	-873.01184	-145.52342	864.1463	-931.14648	-106.66499	887.54584	-1003.5333	242.7675	236.49529	-2034.5797	267.55676	250.19801	185.73515	515.23761	721.28925	-1000.7664	521.72662	725.59393	-929.65649	507.94733	730.03595	-963.27216	113.63367	971.33014	-938.24292	103.02888	805.68073	-944.94739	376.68582	846.3537	-961.41693	65.737213	830.70355	-1086.7458	93.424728	831.716	-786.22949	429.75864	517.48956	-630.90063	390.73218	472.3313	-602.9671	373.62491	519.46198	-594.89893	320.59955	244.54715	-488.06622	361.96774	240.35664	-516.90552	339.26282	182.64102	-496.0719	296.42923	73.356636	-549.3877	354.38202	72.953972	-500.63644	358.25928	34.065628	-559.01569	207.66405	45.686657	-436.63269	273.47083	27.843542	-390.20093	228.97987	41.7785	-408.85803	418.50488	503.08353	-1275.1431	363.35547	507.9906	-1311.5956	378.03192	459.94128	-1302.6696	319.7265	275.42697	-1416.7556	337.25867	214.31606	-1407.4172	357.87628	271.56702	-1383.4778	354.37076	75.09832	-1406.0176	278.83374	71.52092	-1375.8672	356.33533	30.73601	-1348.0968	286.81259	26.608669	-1524.6709	226.11189	36.05154	-1496.6274	250.17097	34.053226	-1517.0223	243.41577	678.35938	-728.40948	195.07863	667.27985	-732.22156	179.98901	726.95825	-730.18097	266.70004	359.36011	-684.86475	195.37708	354.298	-1213.5172	195.01553	346.06973	-1151.5475	199.98045	275.20432	-1154.2249	123.68352	746.84302	-1173.7434	142.14297	688.17041	-1189.9401	167.52885	763.19391	-1190.9797
579	2.885	-125.09554	880.51904	-872.82849	-145.71443	862.34766	-930.98474	-106.83768	885.67871	-1003.4157	242.75919	236.48676	-2034.5684	267.49768	250.19452	185.72559	515.31702	720.63452	-1000.7743	521.73792	724.9361	-929.64404	507.95508	729.45453	-963.21527	113.18427	969.96344	-937.98151	102.91357	804.29529	-944.94647	376.4751	845.59436	-961.34698	65.494202	829.53546	-1086.7197	93.047104	829.92926	-786.1889	429.89905	517.22638	-630.89398	390.72525	472.12335	-602.99432	373.69962	519.26709	-594.97345	320.52509	244.54749	-488.11298	361.92728	240.39412	-516.91028	339.16074	182.69038	-496.09003	296.42499	73.367844	-549.38873	354.39124	72.95829	-500.63174	358.263	34.070953	-559.01221	207.67142	45.675064	-436.6387	273.47644	27.838387	-390.20715	228.98721	41.776386	-408.86081	418.50171	502.81232	-1275.0814	363.36743	507.75052	-1311.5756	378.0387	459.73196	-1302.7738	319.8154	275.17255	-1416.6309	337.13251	214.36174	-1407.397	357.8067	271.57886	-1383.4717	354.35953	75.080536	-1406.0629	278.81177	71.491554	-1375.8618	356.32947	30.750635	-1348.098	286.81021	26.615602	-1524.6639	226.10091	36.034397	-1496.6278	250.16609	34.049122	-1517.0188	243.47408	676.78558	-728.49402	194.96568	665.48694	-732.79834	179.92271	725.38055	-730.22449	267.52774	358.04688	-684.62585	194.88228	353.06097	-1213.8414	194.59457	344.85608	-1151.8116	199.74004	274.00571	-1154.4276	123.25716	745.7475	-1173.7356	141.78134	686.8866	-1190.0125	167.15433	762.00012	-1191.0717
580	2.89	-125.34319	878.81299	-872.63568	-145.93869	860.64447	-930.72839	-107.06453	883.90338	-1003.2233	242.71698	236.50836	-2034.5734	267.3497	250.1898	185.74985	515.35577	720.00458	-1000.7922	521.82227	724.22974	-929.66504	508.05331	728.68634	-963.29926	112.77827	968.60144	-937.70599	102.79928	802.80878	-944.94733	376.34491	844.60828	-961.27692	65.094444	828.57581	-1086.6029	92.919487	828.20117	-786.11676	429.92831	516.96338	-630.99646	390.73633	471.90762	-603.01263	373.72745	519.06641	-595.07941	320.48892	244.57552	-488.11765	361.86508	240.39615	-516.95123	339.14111	182.65987	-496.09329	296.42758	73.36264	-549.40912	354.384	72.958046	-500.63116	358.22324	34.104034	-559.01416	207.70396	45.646748	-436.62296	273.53995	27.721914	-390.31409	228.96831	41.755489	-408.82187	418.63916	502.35593	-1275.26	363.39471	507.59732	-1311.5328	377.99167	459.56351	-1302.7915	319.2135	274.9772	-1416.6312	337.05673	214.35291	-1407.4315	356.76498	271.64111	-1383.5502	354.33224	75.098358	-1405.9379	278.78268	71.515747	-1375.8593	356.32327	30.758301	-1348.1045	286.80844	26.614691	-1524.6633	226.10062	36.030609	-1496.6171	250.15685	34.022194	-1517.0266	243.48264	675.20471	-728.56427	195.25305	663.91229	-732.22955	179.91496	723.71118	-730.29382	268.37744	356.67651	-684.37524	194.55943	351.62714	-1214.2677	194.24364	343.729	-1152.0632	199.51866	272.82944	-1154.6658	122.92835	744.62573	-1173.6057	141.28279	685.86615	-1189.9697	166.74083	760.82733	-1191.0793
